<?xml version="1.0" encoding="UTF-8" standalone="no"?>
<!-- Created with Inkscape (http://www.inkscape.org/) -->

<svg
   xmlns:dc="http://purl.org/dc/elements/1.1/"
   xmlns:cc="http://creativecommons.org/ns#"
   xmlns:rdf="http://www.w3.org/1999/02/22-rdf-syntax-ns#"
   xmlns:svg="http://www.w3.org/2000/svg"
   xmlns="http://www.w3.org/2000/svg"
   xmlns:xlink="http://www.w3.org/1999/xlink"
   xmlns:sodipodi="http://sodipodi.sourceforge.net/DTD/sodipodi-0.dtd"
   xmlns:inkscape="http://www.inkscape.org/namespaces/inkscape"
   width="96"
   height="96"
   id="svg6517"
   version="1.1"
   inkscape:version="0.48.4 r9939"
   sodipodi:docname="icon.svg">
  <defs
     id="defs6519">
    <linearGradient
       inkscape:collect="always"
       xlink:href="#Background"
       id="linearGradient6461"
       gradientUnits="userSpaceOnUse"
       x1="0"
       y1="970.29498"
       x2="144"
       y2="970.29498"
       gradientTransform="matrix(0,-0.66666669,0.6660448,0,-866.25992,731.29077)" />
    <linearGradient
       id="Background">
      <stop
         id="stop4178"
         offset="0"
         style="stop-color:#b8b8b8;stop-opacity:1" />
      <stop
         id="stop4180"
         offset="1"
         style="stop-color:#c9c9c9;stop-opacity:1" />
    </linearGradient>
    <filter
       style="color-interpolation-filters:sRGB;"
       inkscape:label="Inner Shadow"
       id="filter1121">
      <feFlood
         flood-opacity="0.59999999999999998"
         flood-color="rgb(0,0,0)"
         result="flood"
         id="feFlood1123" />
      <feComposite
         in="flood"
         in2="SourceGraphic"
         operator="out"
         result="composite1"
         id="feComposite1125" />
      <feGaussianBlur
         in="composite1"
         stdDeviation="1"
         result="blur"
         id="feGaussianBlur1127" />
      <feOffset
         dx="0"
         dy="2"
         result="offset"
         id="feOffset1129" />
      <feComposite
         in="offset"
         in2="SourceGraphic"
         operator="atop"
         result="composite2"
         id="feComposite1131" />
    </filter>
    <filter
       style="color-interpolation-filters:sRGB;"
       inkscape:label="Drop Shadow"
       id="filter950">
      <feFlood
         flood-opacity="0.25"
         flood-color="rgb(0,0,0)"
         result="flood"
         id="feFlood952" />
      <feComposite
         in="flood"
         in2="SourceGraphic"
         operator="in"
         result="composite1"
         id="feComposite954" />
      <feGaussianBlur
         in="composite1"
         stdDeviation="1"
         result="blur"
         id="feGaussianBlur956" />
      <feOffset
         dx="0"
         dy="1"
         result="offset"
         id="feOffset958" />
      <feComposite
         in="SourceGraphic"
         in2="offset"
         operator="over"
         result="composite2"
         id="feComposite960" />
    </filter>
    <clipPath
       clipPathUnits="userSpaceOnUse"
       id="clipPath873">
      <g
         transform="matrix(0,-0.66666667,0.66604479,0,-258.25992,677.00001)"
         id="g875"
         inkscape:label="Layer 1"
         style="fill:#ff00ff;fill-opacity:1;stroke:none;display:inline">
        <path
           style="fill:#ff00ff;fill-opacity:1;stroke:none;display:inline"
           d="m 46.702703,898.22775 50.594594,0 C 138.16216,898.22775 144,904.06497 144,944.92583 l 0,50.73846 c 0,40.86071 -5.83784,46.69791 -46.702703,46.69791 l -50.594594,0 C 5.8378378,1042.3622 0,1036.525 0,995.66429 L 0,944.92583 C 0,904.06497 5.8378378,898.22775 46.702703,898.22775 Z"
           id="path877"
           inkscape:connector-curvature="0"
           sodipodi:nodetypes="sssssssss" />
      </g>
    </clipPath>
    <filter
       inkscape:collect="always"
       id="filter891"
       inkscape:label="Badge Shadow">
      <feGaussianBlur
         inkscape:collect="always"
         stdDeviation="0.71999962"
         id="feGaussianBlur893" />
    </filter>
  </defs>
  <sodipodi:namedview
     id="base"
     pagecolor="#ffffff"
     bordercolor="#666666"
     borderopacity="1.0"
     inkscape:pageopacity="0.0"
     inkscape:pageshadow="2"
     inkscape:zoom="4.0745362"
     inkscape:cx="19.005524"
     inkscape:cy="49.018169"
     inkscape:document-units="px"
     inkscape:current-layer="layer1"
     showgrid="true"
     fit-margin-top="0"
     fit-margin-left="0"
     fit-margin-right="0"
     fit-margin-bottom="0"
     inkscape:window-width="1366"
     inkscape:window-height="719"
     inkscape:window-x="0"
     inkscape:window-y="25"
     inkscape:window-maximized="1"
     showborder="true"
     showguides="true"
     inkscape:guide-bbox="true"
     inkscape:showpageshadow="false">
    <inkscape:grid
       type="xygrid"
       id="grid821" />
    <sodipodi:guide
       orientation="1,0"
       position="16,48"
       id="guide823" />
    <sodipodi:guide
       orientation="0,1"
       position="64,80"
       id="guide825" />
    <sodipodi:guide
       orientation="1,0"
       position="80,40"
       id="guide827" />
    <sodipodi:guide
       orientation="0,1"
       position="64,16"
       id="guide829" />
  </sodipodi:namedview>
  <metadata
     id="metadata6522">
    <rdf:RDF>
      <cc:Work
         rdf:about="">
        <dc:format>image/svg+xml</dc:format>
        <dc:type
           rdf:resource="http://purl.org/dc/dcmitype/StillImage" />
        <dc:title />
      </cc:Work>
    </rdf:RDF>
  </metadata>
  <g
     inkscape:label="BACKGROUND"
     inkscape:groupmode="layer"
     id="layer1"
     transform="translate(268,-635.29076)"
     style="display:inline">
    <path
       style="fill:url(#linearGradient6461);fill-opacity:1;stroke:none;display:inline;filter:url(#filter1121)"
       d="m -268,700.15563 0,-33.72973 c 0,-27.24324 3.88785,-31.13513 31.10302,-31.13513 l 33.79408,0 c 27.21507,0 31.1029,3.89189 31.1029,31.13513 l 0,33.72973 c 0,27.24325 -3.88783,31.13514 -31.1029,31.13514 l -33.79408,0 C -264.11215,731.29077 -268,727.39888 -268,700.15563 Z"
       id="path6455"
       inkscape:connector-curvature="0"
       sodipodi:nodetypes="sssssssss" />
    <g
       transform="matrix(0.3849391,0,0,0.3849391,-318.72378,614.42072)"
       id="layer3-0"
       style="display:inline">
      <g
         id="layer5">
        <path
           inkscape:connector-curvature="0"
           d="m 264.513,77.977773 -4.917,19.529001 c 6.965,-13.793001 18.027,-24.172001 30.729,-33.323001 -9.287,10.789 -17.754,21.579001 -22.944,32.368001 8.741,-12.292001 20.486,-19.120001 33.733,-23.627001 -17.618,15.706001 -31.60228,32.559277 -42.25528,49.494277 l -8.467,-3.687 c 1.501,-13.521 6.60928,-27.369276 14.12128,-40.754277 z"
           id="path2554"
           style="fill:#abcd03" />
        <path
           inkscape:connector-curvature="0"
           d="m 241.90113,115.14152 16.116,6.68594 c 0,4.098 -0.33313,16.59703 2.22938,20.28403 26.80289,34.5191 22.29349,103.71329 -5.42951,105.48829 -42.21656,0 -58.317,-28.679 -58.317,-55.03801 0,-24.037 28.816,-40.016 46.025,-54.219 4.37,-3.824 3.61113,-12.27525 -0.62387,-23.20125 z"
           id="path2534"
           style="fill:#fffcdb" />
        <path
           inkscape:connector-curvature="0"
           d="m 258.02197,121.58695 5.80803,2.96282 c -0.546,3.823 0.273,12.292 4.096,14.476 16.936,10.516 32.914,21.988 39.197,33.46 22.398,40.42601 -15.706,77.84601 -48.62,74.29501 17.891,-13.248 23.081,-40.42501 16.389,-70.06201 -2.731,-11.609 -6.966,-22.125 -14.478,-34.007 -3.25421,-5.83246 -2.11803,-13.06582 -2.39203,-21.12482 z"
           id="path2536"
           style="fill:#7d4698" />
      </g>
      <g
         id="layer4"
         style="display:inline">
        <path
           inkscape:connector-curvature="0"
           d="m 255.226,120.58877 12.018,1.639 c -3.551,11.745 6.966,19.939 10.38,21.852 7.64801,4.234 15.02301,8.604 20.89601,13.93 11.063,10.106 17.345,24.31 17.345,39.333 0,14.886 -6.829,29.226 -18.301,38.786 -10.789,9.014 -25.67501,12.838 -40.15201,12.838 -9.014,0 -17.072,-0.409 -25.812,-3.278 -19.939,-6.692 -34.826,-23.763 -36.055,-44.25 -1.093,-15.979 2.458,-28.134 14.887,-40.835 6.418,-6.692 19.393,-14.34 28.271,-20.486 4.371,-3.005 9.014,-11.473 0.136,-27.451 l 1.776,-1.366 13.15659,8.81203 -11.10759,-4.57803 c 0.956,1.366 3.551,7.512 4.098,9.287 1.229,5.053 0.683,9.971 -0.41,12.155 -5.599,10.107 -15.159,12.838 -22.124,18.574 -12.292,10.106 -25.676,18.164 -24.174,45.888 0.683,13.657 11.336,30.319 27.314,38.104 9.014,4.371 19.394,6.146 29.91,6.692 9.423,0.41 27.45101,-5.19 37.28401,-13.384 10.516,-8.74 16.389,-21.988 16.389,-35.508 0,-13.658 -5.463,-26.632 -15.706,-35.783 -5.873,-5.326 -15.56901,-11.745 -21.57801,-15.16 -6.009,-3.414 -13.521,-12.974 -11.063,-22.124 z"
           id="path2538" />
        <path
           inkscape:connector-curvature="0"
           d="m 251.539,140.80177 c -1.229,6.283 -2.595,17.618 -8.058,21.852 -2.322,1.638 -4.644,3.278 -7.102,4.916 -9.833,6.693 -19.667,12.974 -24.173,29.09 -0.956,3.415 -0.136,7.102 0.684,10.516 2.458,9.833 9.423,20.486 14.886,26.769 0,0.273 1.093,0.956 1.093,1.229 4.507,5.327 5.873,6.829 22.944,10.652 l -0.41,1.913 c -10.243,-2.731 -18.71,-5.189 -24.037,-11.336 0,-0.136 -0.956,-1.093 -0.956,-1.093 -5.736,-6.556 -12.702,-17.481 -15.296,-27.724 -0.956,-4.098 -1.775,-7.238 -0.683,-11.473 4.643,-16.661 14.75,-23.217 24.993,-30.182 2.322,-1.502 5.053,-2.869 7.238,-4.644 4.233,-3.14 6.554,-12.701 8.877,-20.485 z"
           id="path2540" />
        <path
           inkscape:connector-curvature="0"
           d="m 255.90625,166.74951 c 0.137,7.102 -0.55625,10.66475 1.21875,15.71875 1.092,3.004 4.782,7.1015 5.875,11.0625 1.502,5.327 3.138,11.19901 3,14.75001 0,4.09799 -0.25625,11.74249 -2.03125,19.93749 -1.35362,6.77108 -4.47323,12.58153 -9.71875,15.875 -5.37327,-1.10644 -11.68224,-2.99521 -15.40625,-6.1875 -7.238,-6.282 -13.64875,-16.7865 -14.46875,-25.9375 -0.682,-7.51099 6.27275,-18.5885 15.96875,-24.1875 8.194,-4.78 10.1,-10.22775 11.875,-18.96875 -2.458,7.648 -4.7665,14.05925 -12.6875,18.15625 -11.472,6.009 -17.3585,16.09626 -16.8125,25.65625 0.819,12.291 5.7415,20.6195 15.4375,27.3125 4.097,2.868 11.75125,5.89875 16.53125,6.71875 l 0,-0.625 c 3.62493,-0.67888 8.31818,-6.63267 10.65625,-14.6875 2.049,-7.238 2.85675,-16.502 2.71875,-22.37499 -0.137,-3.414 -1.643,-10.80801 -4.375,-17.50001 -1.502,-3.687 -3.8095,-7.37375 -5.3125,-9.96875 -1.637,-2.597 -1.64875,-8.195 -2.46875,-14.75 z"
           id="path2542" />
        <path
           inkscape:connector-curvature="0"
           d="m 255.09375,193.53076 c 0.136,4.78 2.056,10.90451 2.875,17.18751 0.684,4.64399 0.387,9.30824 0.25,13.40624 -0.13495,4.74323 -1.7152,13.24218 -3.875,17.375 -2.03673,-0.93403 -2.83294,-1.99922 -4.15625,-3.71875 -1.638,-2.322 -2.75075,-4.644 -3.84375,-7.375 -0.819,-2.049 -1.7765,-4.394 -2.1875,-7.125 -0.546,-4.097 -0.393,-10.5065 4.25,-17.06249 3.551,-5.19001 4.36475,-5.58476 5.59375,-11.59376 -1.64,5.326 -2.8625,5.869 -6.6875,10.37501 -4.233,4.917 -4.9375,12.15924 -4.9375,18.03124 0,2.459 0.9805,5.18725 1.9375,7.78125 1.092,2.732 2.02925,5.452 3.53125,7.5 2.25796,3.32082 5.14798,5.20922 6.5625,5.5625 0.009,0.002 0.022,-0.002 0.0312,0 0.0303,0.007 0.0649,0.0255 0.0937,0.0312 l 0,-0.15625 c 2.64982,-2.95437 4.24444,-5.88934 4.78125,-8.84375 0.683,-3.551 0.84,-7.10975 1.25,-11.34375 0.409,-3.551 0.11225,-8.334 -0.84375,-13.24999 -1.365,-6.146 -3.669,-12.41226 -4.625,-16.78126 z"
           id="path2544" />
        <path
           inkscape:connector-curvature="0"
           d="m 255.499,135.06577 c 0.137,7.101 0.683,20.35 2.595,25.539 0.546,1.775 5.599,9.56 9.149,18.983 2.459,6.556 3.005,12.565 3.415,14.34 1.639,7.785 -0.41,20.896 -3.142,33.324 -1.365,6.692 -6.009,15.023 -11.335,18.301 l -1.092,1.912 c 3.005,-0.137 10.379,-7.375 12.974,-16.389 4.371,-15.296 6.146,-22.398 4.098,-39.333 -0.273,-1.64 -0.956,-7.238 -3.551,-13.248 -3.824,-9.151 -9.287,-17.891 -9.969,-19.667 -1.23,-2.867 -2.869,-15.295 -3.142,-23.762 z"
           id="path2550" />
        <path
           inkscape:connector-curvature="0"
           d="m 258.06151,125.35303 c -0.40515,7.29812 -0.51351,9.98574 0.85149,15.31174 1.502,5.873 9.151,14.34 12.292,24.037 6.009,18.574 4.507,42.884 0.136,61.867 -1.638,6.691 -9.424,16.389 -17.208,19.529 l 5.736,1.366 c 3.141,-0.137 11.198,-7.648 14.34,-16.252 5.052,-13.521 6.009,-29.636 3.96,-46.571 -0.137,-1.639 -2.869,-16.252 -5.463,-22.398 -3.688,-9.15 -10.244,-17.345 -10.926,-19.119 -1.228,-3.005 -3.92651,-9.24362 -3.71849,-17.77074 z"
           id="path2552" />
        <rect
           width="0.550412"
           height="126.01891"
           x="253.71959"
           y="120.21686"
           id="rect2556" />
      </g>
    </g>
  </g>
  <g
     inkscape:groupmode="layer"
     id="layer3"
     inkscape:label="PLACE YOUR PICTOGRAM HERE"
     style="display:inline" />
  <g
     inkscape:groupmode="layer"
     id="layer2"
     inkscape:label="BADGE"
     style="display:none"
     sodipodi:insensitive="true">
    <g
       style="display:inline"
       transform="translate(-340.00001,-581)"
       id="g4394"
       clip-path="none">
      <g
         id="g855">
        <g
           inkscape:groupmode="maskhelper"
           id="g870"
           clip-path="url(#clipPath873)"
           style="opacity:0.6;filter:url(#filter891)">
          <path
             transform="matrix(1.4999992,0,0,1.4999992,-29.999795,-237.54282)"
             d="m 264,552.36218 c 0,6.62742 -5.37258,12 -12,12 -6.62742,0 -12,-5.37258 -12,-12 0,-6.62741 5.37258,-12 12,-12 6.62742,0 12,5.37259 12,12 z"
             sodipodi:ry="12"
             sodipodi:rx="12"
             sodipodi:cy="552.36218"
             sodipodi:cx="252"
             id="path844"
             style="color:#000000;fill:#000000;fill-opacity:1;fill-rule:nonzero;stroke:none;stroke-width:4;marker:none;visibility:visible;display:inline;overflow:visible;enable-background:accumulate"
             sodipodi:type="arc" />
        </g>
        <g
           id="g862">
          <path
             sodipodi:type="arc"
             style="color:#000000;fill:#f5f5f5;fill-opacity:1;fill-rule:nonzero;stroke:none;stroke-width:4;marker:none;visibility:visible;display:inline;overflow:visible;enable-background:accumulate"
             id="path4398"
             sodipodi:cx="252"
             sodipodi:cy="552.36218"
             sodipodi:rx="12"
             sodipodi:ry="12"
             d="m 264,552.36218 c 0,6.62742 -5.37258,12 -12,12 -6.62742,0 -12,-5.37258 -12,-12 0,-6.62741 5.37258,-12 12,-12 6.62742,0 12,5.37259 12,12 z"
             transform="matrix(1.4999992,0,0,1.4999992,-29.999795,-238.54282)" />
          <path
             transform="matrix(1.25,0,0,1.25,33,-100.45273)"
             d="m 264,552.36218 c 0,6.62742 -5.37258,12 -12,12 -6.62742,0 -12,-5.37258 -12,-12 0,-6.62741 5.37258,-12 12,-12 6.62742,0 12,5.37259 12,12 z"
             sodipodi:ry="12"
             sodipodi:rx="12"
             sodipodi:cy="552.36218"
             sodipodi:cx="252"
             id="path4400"
             style="color:#000000;fill:#dd4814;fill-opacity:1;fill-rule:nonzero;stroke:none;stroke-width:4;marker:none;visibility:visible;display:inline;overflow:visible;enable-background:accumulate"
             sodipodi:type="arc" />
          <path
             sodipodi:type="star"
             style="color:#000000;fill:#f5f5f5;fill-opacity:1;fill-rule:nonzero;stroke:none;stroke-width:3;marker:none;visibility:visible;display:inline;overflow:visible;enable-background:accumulate"
             id="path4459"
             sodipodi:sides="5"
             sodipodi:cx="666.19574"
             sodipodi:cy="589.50385"
             sodipodi:r1="7.2431178"
             sodipodi:r2="4.3458705"
             sodipodi:arg1="1.0471976"
             sodipodi:arg2="1.6755161"
             inkscape:flatsided="false"
             inkscape:rounded="0.1"
             inkscape:randomized="0"
             d="m 669.8173,595.77657 c -0.39132,0.22593 -3.62645,-1.90343 -4.07583,-1.95066 -0.44938,-0.0472 -4.05653,1.36297 -4.39232,1.06062 -0.3358,-0.30235 0.68963,-4.03715 0.59569,-4.47913 -0.0939,-0.44198 -2.5498,-3.43681 -2.36602,-3.8496 0.18379,-0.41279 4.05267,-0.59166 4.44398,-0.81759 0.39132,-0.22593 2.48067,-3.48704 2.93005,-3.4398 0.44938,0.0472 1.81505,3.67147 2.15084,3.97382 0.3358,0.30236 4.08294,1.2817 4.17689,1.72369 0.0939,0.44198 -2.9309,2.86076 -3.11469,3.27355 -0.18379,0.41279 0.0427,4.27917 -0.34859,4.5051 z"
             transform="matrix(1.511423,-0.16366377,0.16366377,1.511423,-755.37346,-191.93651)" />
        </g>
      </g>
    </g>
  </g>
</svg>
